# xmcd
#
# Track frame offsets:
#	150
#	17732
#	30926
#	47442
#	63958
#	90122
#	174125
#
# Disc length: 2642 seconds
#
# Revision: 1
# Processed by: cddbd v1.5.1PL2 Copyright (c) Steve Scherf et al.
# Submitted via: audiograbber 1.83.01
#
DISCID=3a0a5007
DTITLE=Lindisfarne - Lindisfarne Live
DYEAR=1900
DGENRE=
TTITLE0=Lindisfarne - No Time To Lose
TTITLE1=Lindisfarne - Meet Me On The Corner
TTITLE2=Lindisfarne - Alright On The night
TTITLE3=Lindisfarne - Train In G Minor
TTITLE4=Lindisfarne - Fog On The Tyne
TTITLE5=Lindisfarne - We Can Swing Together
TTITLE6=Lindisfarne - Jackhammer Blues
EXTD=
EXTT0=
EXTT1=
EXTT2=
EXTT3=
EXTT4=
EXTT5=
EXTT6=
PLAYORDER=
